<svg width="528" height="48" viewBox="0 0 528 48" fill="none" xmlns="http://www.w3.org/2000/svg">
<g clip-path="url(#clip0_2012_4445)">
<g opacity="0.2" clip-path="url(#clip1_2012_4445)">
<rect x="516" y="47.9998" width="8" height="8" transform="rotate(-180 516 47.9998)" fill="#A891EB"/>
<rect x="496" y="47.9998" width="8" height="8" transform="rotate(-180 496 47.9998)" fill="#A891EB"/>
<rect x="476" y="47.9998" width="8" height="8" transform="rotate(-180 476 47.9998)" fill="#A891EB"/>
<rect x="456" y="47.9998" width="8" height="8" transform="rotate(-180 456 47.9998)" fill="#A891EB"/>
<rect x="436" y="47.9998" width="8" height="8" transform="rotate(-180 436 47.9998)" fill="#A891EB"/>
<rect x="416" y="47.9998" width="8" height="8" transform="rotate(-180 416 47.9998)" fill="#A891EB"/>
<rect x="396" y="47.9998" width="8" height="8" transform="rotate(-180 396 47.9998)" fill="#A891EB"/>
<rect x="376" y="47.9998" width="8" height="8" transform="rotate(-180 376 47.9998)" fill="#A891EB"/>
<rect x="356" y="47.9998" width="8" height="8" transform="rotate(-180 356 47.9998)" fill="#A891EB"/>
<rect x="336" y="47.9998" width="8" height="8" transform="rotate(-180 336 47.9998)" fill="#A891EB"/>
<rect x="316" y="47.9998" width="8" height="8" transform="rotate(-180 316 47.9998)" fill="#A891EB"/>
<rect x="296" y="47.9998" width="8" height="8" transform="rotate(-180 296 47.9998)" fill="#A891EB"/>
<rect x="276" y="47.9998" width="8" height="8" transform="rotate(-180 276 47.9998)" fill="#A891EB"/>
<rect x="256" y="47.9998" width="8" height="8" transform="rotate(-180 256 47.9998)" fill="#A891EB"/>
<rect x="236" y="47.9998" width="8" height="8" transform="rotate(-180 236 47.9998)" fill="#A891EB"/>
<rect x="216" y="47.9998" width="8" height="8" transform="rotate(-180 216 47.9998)" fill="#A891EB"/>
<rect x="196" y="47.9998" width="8" height="8" transform="rotate(-180 196 47.9998)" fill="#A891EB"/>
<rect x="176" y="47.9998" width="8" height="8" transform="rotate(-180 176 47.9998)" fill="#A891EB"/>
<rect x="156" y="47.9998" width="8" height="8" transform="rotate(-180 156 47.9998)" fill="#A891EB"/>
<rect x="136" y="47.9998" width="8" height="8" transform="rotate(-180 136 47.9998)" fill="#A891EB"/>
<rect x="116" y="47.9998" width="8" height="8" transform="rotate(-180 116 47.9998)" fill="#A891EB"/>
<rect x="96" y="47.9998" width="8" height="8" transform="rotate(-180 96 47.9998)" fill="#A891EB"/>
<rect x="76" y="47.9998" width="8" height="8" transform="rotate(-180 76 47.9998)" fill="#A891EB"/>
<rect x="56" y="47.9998" width="8" height="8" transform="rotate(-180 56 47.9998)" fill="#A891EB"/>
<rect x="36" y="47.9998" width="8" height="8" transform="rotate(-180 36 47.9998)" fill="#A891EB"/>
<rect x="16" y="47.9998" width="8" height="8" transform="rotate(-180 16 47.9998)" fill="#A891EB"/>
<rect x="516" y="27.9998" width="8" height="8" transform="rotate(-180 516 27.9998)" fill="#A891EB"/>
<rect x="496" y="27.9998" width="8" height="8" transform="rotate(-180 496 27.9998)" fill="#A891EB"/>
<rect x="476" y="27.9998" width="8" height="8" transform="rotate(-180 476 27.9998)" fill="#A891EB"/>
<rect x="456" y="27.9998" width="8" height="8" transform="rotate(-180 456 27.9998)" fill="#A891EB"/>
<rect x="436" y="27.9998" width="8" height="8" transform="rotate(-180 436 27.9998)" fill="#A891EB"/>
<rect x="416" y="27.9998" width="8" height="8" transform="rotate(-180 416 27.9998)" fill="#A891EB"/>
<rect x="396" y="27.9998" width="8" height="8" transform="rotate(-180 396 27.9998)" fill="#A891EB"/>
<rect x="376" y="27.9998" width="8" height="8" transform="rotate(-180 376 27.9998)" fill="#A891EB"/>
<rect x="356" y="27.9998" width="8" height="8" transform="rotate(-180 356 27.9998)" fill="#A891EB"/>
<rect x="336" y="27.9998" width="8" height="8" transform="rotate(-180 336 27.9998)" fill="#A891EB"/>
<rect x="316" y="27.9998" width="8" height="8" transform="rotate(-180 316 27.9998)" fill="#A891EB"/>
<rect x="296" y="27.9998" width="8" height="8" transform="rotate(-180 296 27.9998)" fill="#A891EB"/>
<rect x="276" y="27.9998" width="8" height="8" transform="rotate(-180 276 27.9998)" fill="#A891EB"/>
<rect x="256" y="27.9998" width="8" height="8" transform="rotate(-180 256 27.9998)" fill="#A891EB"/>
<rect x="236" y="27.9998" width="8" height="8" transform="rotate(-180 236 27.9998)" fill="#A891EB"/>
<rect x="216" y="27.9998" width="8" height="8" transform="rotate(-180 216 27.9998)" fill="#A891EB"/>
<rect x="196" y="27.9998" width="8" height="8" transform="rotate(-180 196 27.9998)" fill="#A891EB"/>
<rect x="176" y="27.9998" width="8" height="8" transform="rotate(-180 176 27.9998)" fill="#A891EB"/>
<rect x="156" y="27.9998" width="8" height="8" transform="rotate(-180 156 27.9998)" fill="#A891EB"/>
<rect x="136" y="27.9998" width="8" height="8" transform="rotate(-180 136 27.9998)" fill="#A891EB"/>
<rect x="116" y="27.9998" width="8" height="8" transform="rotate(-180 116 27.9998)" fill="#A891EB"/>
<rect x="96" y="27.9998" width="8" height="8" transform="rotate(-180 96 27.9998)" fill="#A891EB"/>
<rect x="76" y="27.9998" width="8" height="8" transform="rotate(-180 76 27.9998)" fill="#A891EB"/>
<rect x="56" y="27.9998" width="8" height="8" transform="rotate(-180 56 27.9998)" fill="#A891EB"/>
<rect x="36" y="27.9998" width="8" height="8" transform="rotate(-180 36 27.9998)" fill="#A891EB"/>
<rect x="16" y="27.9998" width="8" height="8" transform="rotate(-180 16 27.9998)" fill="#A891EB"/>
<rect x="516" y="7.99976" width="8" height="8" transform="rotate(-180 516 7.99976)" fill="#A891EB"/>
<rect x="496" y="7.99976" width="8" height="8" transform="rotate(-180 496 7.99976)" fill="#A891EB"/>
<rect x="476" y="7.99976" width="8" height="8" transform="rotate(-180 476 7.99976)" fill="#A891EB"/>
<rect x="456" y="7.99976" width="8" height="8" transform="rotate(-180 456 7.99976)" fill="#A891EB"/>
<rect x="436" y="7.99976" width="8" height="8" transform="rotate(-180 436 7.99976)" fill="#A891EB"/>
<rect x="416" y="7.99976" width="8" height="8" transform="rotate(-180 416 7.99976)" fill="#A891EB"/>
<rect x="396" y="7.99976" width="8" height="8" transform="rotate(-180 396 7.99976)" fill="#A891EB"/>
<rect x="376" y="7.99976" width="8" height="8" transform="rotate(-180 376 7.99976)" fill="#A891EB"/>
<rect x="356" y="7.99976" width="8" height="8" transform="rotate(-180 356 7.99976)" fill="#A891EB"/>
<rect x="336" y="7.99976" width="8" height="8" transform="rotate(-180 336 7.99976)" fill="#A891EB"/>
<rect x="316" y="7.99976" width="8" height="8" transform="rotate(-180 316 7.99976)" fill="#A891EB"/>
<rect x="296" y="7.99976" width="8" height="8" transform="rotate(-180 296 7.99976)" fill="#A891EB"/>
<rect x="276" y="7.99976" width="8" height="8" transform="rotate(-180 276 7.99976)" fill="#A891EB"/>
<rect x="256" y="7.99976" width="8" height="8" transform="rotate(-180 256 7.99976)" fill="#A891EB"/>
<rect x="236" y="7.99976" width="8" height="8" transform="rotate(-180 236 7.99976)" fill="#A891EB"/>
<rect x="216" y="7.99976" width="8" height="8" transform="rotate(-180 216 7.99976)" fill="#A891EB"/>
<rect x="196" y="7.99976" width="8" height="8" transform="rotate(-180 196 7.99976)" fill="#A891EB"/>
<rect x="176" y="7.99976" width="8" height="8" transform="rotate(-180 176 7.99976)" fill="#A891EB"/>
<rect x="156" y="7.99976" width="8" height="8" transform="rotate(-180 156 7.99976)" fill="#A891EB"/>
<rect x="136" y="7.99976" width="8" height="8" transform="rotate(-180 136 7.99976)" fill="#A891EB"/>
<rect x="116" y="7.99976" width="8" height="8" transform="rotate(-180 116 7.99976)" fill="#A891EB"/>
<rect x="96" y="7.99976" width="8" height="8" transform="rotate(-180 96 7.99976)" fill="#A891EB"/>
<rect x="76" y="7.99976" width="8" height="8" transform="rotate(-180 76 7.99976)" fill="#A891EB"/>
<rect x="56" y="7.99976" width="8" height="8" transform="rotate(-180 56 7.99976)" fill="#A891EB"/>
<rect x="36" y="7.99976" width="8" height="8" transform="rotate(-180 36 7.99976)" fill="#A891EB"/>
<rect x="16" y="7.99976" width="8" height="8" transform="rotate(-180 16 7.99976)" fill="#A891EB"/>
</g>
</g>
<defs>
<clipPath id="clip0_2012_4445">
<rect width="528" height="48" fill="white"/>
</clipPath>
<clipPath id="clip1_2012_4445">
<rect width="1916" height="47.9998" fill="white" transform="translate(1916 48) rotate(-180)"/>
</clipPath>
</defs>
</svg>
